<svg xmlns="http://www.w3.org/2000/svg" xmlns:xlink="http://www.w3.org/1999/xlink" width="86" zoomAndPan="magnify" viewBox="0 0 64.5 42.749999" height="57" preserveAspectRatio="xMidYMid meet" version="1.0"><defs><filter x="0%" y="0%" width="100%" height="100%" id="4add59b8c1"><feColorMatrix values="0 0 0 0 1 0 0 0 0 1 0 0 0 0 1 0 0 0 1 0" color-interpolation-filters="sRGB"/></filter><clipPath id="d0003078df"><path d="M 0 0.0390625 L 43 0.0390625 L 43 42.460938 L 0 42.460938 Z M 0 0.0390625 " clip-rule="nonzero"/></clipPath><mask id="27393ca018"><g filter="url(#4add59b8c1)"><rect x="-6.45" width="77.4" fill="#000000" y="-4.275" height="51.299999" fill-opacity="0.8"/></g></mask><clipPath id="79766f4bd6"><path d="M 0 0.0390625 L 42.1875 0.0390625 L 42.1875 42.285156 L 0 42.285156 Z M 0 0.0390625 " clip-rule="nonzero"/></clipPath><clipPath id="fe96ee4ca7"><path d="M 42.1875 0.03125 L 42.1875 42.285156 L 0 42.285156 Z M 42.1875 0.03125 " clip-rule="nonzero"/></clipPath><clipPath id="3dbaeb62ba"><rect x="0" width="43" y="0" height="43"/></clipPath><clipPath id="2aba843b23"><path d="M 20 0.0390625 L 64 0.0390625 L 64 42.460938 L 20 42.460938 Z M 20 0.0390625 " clip-rule="nonzero"/></clipPath><mask id="3f7adcb141"><g filter="url(#4add59b8c1)"><rect x="-6.45" width="77.4" fill="#000000" y="-4.275" height="51.299999" fill-opacity="0.8"/></g></mask><clipPath id="739c3027fe"><path d="M 1.09375 0.0390625 L 43.28125 0.0390625 L 43.28125 42.285156 L 1.09375 42.285156 Z M 1.09375 0.0390625 " clip-rule="nonzero"/></clipPath><clipPath id="ec957379fb"><path d="M 43.28125 0.03125 L 43.28125 42.285156 L 1.09375 42.285156 Z M 43.28125 0.03125 " clip-rule="nonzero"/></clipPath><clipPath id="d20c083745"><rect x="0" width="44" y="0" height="43"/></clipPath></defs><g clip-path="url(#d0003078df)"><g mask="url(#27393ca018)"><g transform="matrix(1, 0, 0, 1, 0, -0.000000000000007258)"><g clip-path="url(#3dbaeb62ba)"><g clip-path="url(#79766f4bd6)"><g clip-path="url(#fe96ee4ca7)"><path fill="#00bf63" d="M 0 42.285156 L 0 0.015625 L 42.1875 0.015625 L 42.1875 42.285156 Z M 0 42.285156 " fill-opacity="1" fill-rule="nonzero"/></g></g></g></g></g></g><g clip-path="url(#2aba843b23)"><g mask="url(#3f7adcb141)"><g transform="matrix(1, 0, 0, 1, 20, -0.000000000000007258)"><g clip-path="url(#d20c083745)"><g clip-path="url(#739c3027fe)"><g clip-path="url(#ec957379fb)"><path fill="#00bf63" d="M 1.09375 42.285156 L 1.09375 0.015625 L 43.28125 0.015625 L 43.28125 42.285156 Z M 1.09375 42.285156 " fill-opacity="1" fill-rule="nonzero"/></g></g></g></g></g></g></svg>